<svg viewBox="0 0 32 32" xmlns="http://www.w3.org/2000/svg">
<path d="M24.3116 9.62461L24.6644 9.27129L24.3116 8.91797L21.2559 5.85829L20.9021 5.50403L20.5484 5.85829L18.0742 8.33569L17.7214 8.68901L18.0742 9.04233L21.1299 12.102L21.4837 12.4563L21.8374 12.102L24.3116 9.62461ZM17.4577 9.66152L17.1039 9.30726L16.7501 9.66152L7.55644 18.8674L7.42694 18.997L7.41191 19.1797L7.13755 22.5141L7.08918 23.1019L7.67697 23.0534L11.007 22.7787L11.1899 22.7636L11.3197 22.6337L20.5134 13.4278L20.8662 13.0745L20.5134 12.7212L17.4577 9.66152ZM19.9319 5.2391C20.4678 4.70244 21.3365 4.70244 21.8724 5.2391L24.9281 8.29878C25.4644 8.83581 25.4644 9.70677 24.9281 10.2438L11.9362 23.2529C11.7062 23.4831 11.4023 23.624 11.0785 23.6507L7.74851 23.9255C6.90443 23.9951 6.19827 23.2893 6.26798 22.4421L6.54234 19.1077C6.56906 18.783 6.71001 18.4784 6.93993 18.2482L19.9319 5.2391Z" stroke="#000000"/>
</svg>
