<svg viewBox="0 0 32 32" xmlns="http://www.w3.org/2000/svg">
<path fill-rule="evenodd" clip-rule="evenodd" d="M3.00205 29.002C3.71394 29.7002 3.71399 29.7002 3.71411 29.7L4.41157 28.9899C4.86297 28.5306 5.51931 27.8634 6.33887 27.0318C6.69879 26.6665 7.09018 26.2696 7.50951 25.8446C9.78732 27.8109 12.7548 29 16 29C23.1797 29 29 23.1797 29 16C29 12.7481 27.806 9.77514 25.8325 7.49549C27.176 6.17291 28.476 4.901 29.6961 3.71791C30.0926 3.33344 30.1024 2.70035 29.7179 2.30386C29.3334 1.90737 28.7004 1.89763 28.3039 2.28209C27.0746 3.4741 25.7648 4.75559 24.4116 6.0878C22.1444 4.16189 19.2079 3 16 3C8.8203 3 3 8.8203 3 16C3 19.2146 4.16674 22.1566 6.09984 24.4258C5.67492 24.8564 5.27853 25.2584 4.91434 25.6279C4.09411 26.4603 3.43716 27.1281 2.9852 27.5879L2.2868 28.299C2.28668 28.2992 2.28606 28.2998 3 29L2.28606 28.2998C1.89935 28.6941 1.90549 29.3272 2.29979 29.7139C2.69409 30.1007 3.3274 30.0943 3.71411 29.7L3.00205 29.002ZM8.89704 24.4396C10.8197 26.0379 13.2967 27 16 27C22.116 27 27.0741 22.0751 27.0741 16C27.0741 13.2813 26.0811 10.7929 24.4358 8.87323C20.5543 12.7091 16.4247 16.8471 12.8807 20.4174C11.4363 21.8724 10.0896 23.2328 8.89704 24.4396ZM23.0025 7.47787C19.1213 11.3137 14.9977 15.4457 11.4612 19.0084C10.0181 20.4622 8.67244 21.8216 7.48037 23.0278C5.88521 21.1219 4.92593 18.6722 4.92593 16C4.92593 9.92487 9.88396 5 16 5C18.6564 5 21.0943 5.92905 23.0025 7.47787Z"/>
</svg>
