<svg viewBox="0 0 32 32" xmlns="http://www.w3.org/2000/svg">
<path d="M16.3138 6.10481L23.3283 14.2312V25.676C23.3283 25.859 23.1798 26.0074 22.9965 26.0074H18.7335V21.3255C18.7335 20.5935 18.1394 20.0001 17.4064 20.0001H14.7203C13.9873 20.0001 13.3932 20.5935 13.3932 21.3255V26.0074H9.13036C8.94712 26.0074 8.79857 25.859 8.79857 25.676V14.2289L15.8112 6.10481C15.9435 5.95147 16.1814 5.95147 16.3138 6.10481ZM17.5178 27.9955H22.9965C24.2792 27.9955 25.319 26.957 25.319 25.676V18.0446H27.0761C27.4653 18.0446 27.8189 17.818 27.981 17.4647C28.1431 17.1113 28.0842 16.6959 27.83 16.4015L17.8216 4.80672C16.8951 3.73337 15.2299 3.73337 14.3034 4.80672L4.29494 16.4015C4.0408 16.6959 3.98182 17.1113 4.14396 17.4647C4.3061 17.818 4.65962 18.0446 5.04884 18.0446H6.80785V25.676C6.80785 26.957 7.84767 27.9955 9.13036 27.9955H14.6089C14.6457 27.9985 14.6828 28.0001 14.7203 28.0001H17.4064C17.4439 28.0001 17.481 27.9985 17.5178 27.9955Z"/>
</svg>
