<svg viewBox="0 0 32 32" xmlns="http://www.w3.org/2000/svg">
<path d="M8.16669 3C7.6144 3 7.16669 3.44772 7.16669 4V28C7.16669 28.5523 7.6144 29 8.16669 29H24.1667C24.719 29 25.1667 28.5523 25.1667 28V25C25.1667 24.4477 24.719 24 24.1667 24C23.6144 24 23.1667 24.4477 23.1667 25V27H9.16669V5H23.1667V7C23.1667 7.55228 23.6144 8 24.1667 8C24.719 8 25.1667 7.55228 25.1667 7V4C25.1667 3.44772 24.719 3 24.1667 3H8.16669ZM30.8738 15.2929L25.8738 10.2929C25.4833 9.90237 24.8501 9.90237 24.4596 10.2929C24.0691 10.6834 24.0691 11.3166 24.4596 11.7071L27.7525 15H14.6667C14.1144 15 13.6667 15.4477 13.6667 16C13.6667 16.5523 14.1144 17 14.6667 17H27.7525L24.4596 20.2929C24.0691 20.6834 24.0691 21.3166 24.4596 21.7071C24.8501 22.0976 25.4833 22.0976 25.8738 21.7071L30.8738 16.7071C31.2643 16.3166 31.2643 15.6834 30.8738 15.2929Z"/>
</svg>
