<svg viewBox="0 0 32 32" xmlns="http://www.w3.org/2000/svg">
<path d="M16 11.0001C16.5523 11.0001 17 11.4479 17 12.0001V19.0001C17 19.5524 16.5523 20.0001 16 20.0001C15.4477 20.0001 15 19.5524 15 19.0001V12.0001C15 11.4479 15.4477 11.0001 16 11.0001Z"/>
<path d="M16 21.0001C16.5523 21.0001 17 21.4479 17 22.0001C17 22.5524 16.5523 23.0001 16 23.0001C15.4477 23.0001 15 22.5524 15 22.0001C15 21.4479 15.4477 21.0001 16 21.0001Z"/>
<path d="M17.7218 4.94836C16.9477 3.6383 15.0523 3.63831 14.2781 4.94836L3.03058 23.9827C2.24277 25.3159 3.20384 27.0001 4.75244 27.0001H27.2475C28.7961 27.0001 29.7572 25.3159 28.9694 23.9827L17.7218 4.94836ZM16 5.96582L27.2475 25.0001H4.75244L16 5.96582Z"/>
</svg>
