<svg viewBox="0 0 32 32" xmlns="http://www.w3.org/2000/svg">
<path fill-rule="evenodd" clip-rule="evenodd" d="M22.9392 27.0001V13.0001H8.92069V27.0001H22.9392ZM6.91805 27.0001V13.0001C5.81202 13.0001 4.91541 12.1047 4.91541 11.0001V7.00012C4.91541 5.89555 5.81202 5.00012 6.91805 5.00012H13.9273C13.9273 3.89555 14.8239 3.00012 15.93 3.00012C17.036 3.00012 17.9326 3.89555 17.9326 5.00012H24.9419C26.0479 5.00012 26.9445 5.89555 26.9445 7.00012V11.0001C26.9445 12.1047 26.0479 13.0001 24.9419 13.0001V27.0001C24.9419 28.1047 24.0452 29.0001 22.9392 29.0001H8.92069C7.81466 29.0001 6.91805 28.1047 6.91805 27.0001ZM24.9419 7.00012V11.0001H6.91805L6.91805 7.00012H24.9419ZM12.926 17.0001C12.926 16.4478 13.3743 16.0001 13.9273 16.0001C14.4803 16.0001 14.9286 16.4478 14.9286 17.0001V23.0001C14.9286 23.5524 14.4803 24.0001 13.9273 24.0001C13.3743 24.0001 12.926 23.5524 12.926 23.0001V17.0001ZM17.9326 16.0001C17.3796 16.0001 16.9313 16.4478 16.9313 17.0001V23.0001C16.9313 23.5524 17.3796 24.0001 17.9326 24.0001C18.4856 24.0001 18.9339 23.5524 18.9339 23.0001V17.0001C18.9339 16.4478 18.4856 16.0001 17.9326 16.0001Z"/>
</svg>
