<svg viewBox="0 0 32 32" xmlns="http://www.w3.org/2000/svg">
<path fill-rule="evenodd" clip-rule="evenodd" d="M27 16C27 22.0751 22.0751 27 16 27C9.92487 27 5 22.0751 5 16C5 9.92487 9.92487 5 16 5C22.0751 5 27 9.92487 27 16ZM29 16C29 23.1797 23.1797 29 16 29C8.8203 29 3 23.1797 3 16C3 8.8203 8.8203 3 16 3C23.1797 3 29 8.8203 29 16ZM12.5052 15C13.6098 15 14.5052 14.1046 14.5052 13C14.5052 11.8954 13.6098 11 12.5052 11C11.4006 11 10.5052 11.8954 10.5052 13C10.5052 14.1046 11.4006 15 12.5052 15ZM21.5052 13C21.5052 14.1046 20.6098 15 19.5052 15C18.4006 15 17.5052 14.1046 17.5052 13C17.5052 11.8954 18.4006 11 19.5052 11C20.6098 11 21.5052 11.8954 21.5052 13ZM11.0383 22.5C10.127 22.5 9.64069 21.4604 10.3148 20.8473C11.1833 20.0573 12.0721 19.483 12.9718 19.0994C14.5285 18.4357 16.0559 18.37 17.4557 18.6742C19.0723 19.0255 20.506 19.8645 21.6595 20.8252C22.3851 21.4295 21.9039 22.5 20.9596 22.5C20.6905 22.5 20.4321 22.401 20.2219 22.233C19.3016 21.4976 18.207 20.8841 17.031 20.6286C16.0001 20.4046 14.8988 20.452 13.7562 20.9392C13.1293 21.2064 12.4719 21.6139 11.7968 22.2051C11.586 22.3897 11.3184 22.5 11.0383 22.5Z"/>
</svg>
