<svg viewBox="0 0 32 32" xmlns="http://www.w3.org/2000/svg">
<path d="M16 27C22.0751 27 27 22.0751 27 16C27 14.5462 26.718 13.1584 26.2057 11.8881L27.7219 10.3719C28.541 12.0749 29 13.9838 29 16C29 23.1797 23.1797 29 16 29C8.8203 29 3 23.1797 3 16C3 8.8203 8.8203 3 16 3C18.9805 3 21.7267 4.003 23.9195 5.68988L22.491 7.11837C20.6716 5.78641 18.4276 5 16 5C9.92487 5 5 9.92487 5 16C5 22.0751 9.92487 27 16 27ZM28.2072 7.20698C28.5977 6.81639 28.5976 6.18323 28.207 5.79277C27.8164 5.40231 27.1832 5.40242 26.7928 5.79302L15.9995 16.59L12.7076 13.2934C12.3174 12.9026 11.6842 12.9021 11.2934 13.2924C10.9026 13.6826 10.9021 14.3158 11.2924 14.7066L15.2915 18.7115C15.479 18.8992 15.7335 19.0048 15.9988 19.0049C16.2642 19.0049 16.5187 18.8995 16.7063 18.7119L28.2072 7.20698Z"/>
</svg>
